<svg width="172" height="29" fill="none" xmlns="http://www.w3.org/2000/svg"><path d="M46.386 18.931c.132 0 .249.051.351.153l.954 1.035c-.528.654-1.179 1.155-1.953 1.503-.768.348-1.692.522-2.772.522-.966 0-1.836-.165-2.61-.495-.768-.33-1.425-.789-1.971-1.377s-.966-1.29-1.26-2.106c-.288-.816-.432-1.707-.432-2.673 0-.978.156-1.872.468-2.682.312-.816.75-1.518 1.314-2.106.57-.588 1.248-1.044 2.034-1.368.786-.33 1.656-.495 2.61-.495.948 0 1.788.156 2.52.468.738.312 1.365.72 1.881 1.224l-.81 1.125c-.048.072-.111.135-.189.189-.072.054-.174.081-.306.081-.09 0-.183-.024-.279-.072-.096-.054-.201-.117-.315-.189-.114-.078-.246-.162-.396-.252-.15-.09-.324-.171-.522-.243-.198-.078-.429-.141-.693-.189-.258-.054-.558-.081-.9-.081-.582 0-1.116.105-1.602.315-.48.204-.894.504-1.242.9-.348.39-.618.87-.81 1.44-.192.564-.288 1.209-.288 1.935 0 .732.102 1.383.306 1.953.21.57.492 1.05.846 1.44.354.39.771.69 1.251.9.48.204.996.306 1.548.306.33 0 .627-.018.891-.054.27-.036.516-.093.738-.171.228-.078.441-.177.639-.297.204-.126.405-.279.603-.459.06-.054.123-.096.189-.126.066-.036.135-.054.207-.054zm10.5864 1.071V22h-7.623V8.986h2.421v11.016h5.202zm13.6825-4.509c0 .954-.159 1.839-.477 2.655-.312.81-.756 1.512-1.332 2.106-.576.594-1.269 1.059-2.079 1.395-.81.33-1.71.495-2.7.495-.984 0-1.881-.165-2.691-.495-.81-.336-1.506-.801-2.088-1.395-.576-.594-1.023-1.296-1.341-2.106-.318-.816-.477-1.701-.477-2.655 0-.954.159-1.836.477-2.646.318-.816.765-1.521 1.341-2.115.582-.594 1.278-1.056 2.088-1.386.81-.336 1.707-.504 2.691-.504.66 0 1.281.078 1.863.234.582.15 1.116.366 1.602.648.486.276.921.615 1.305 1.017.39.396.72.84.99 1.332.27.492.474 1.026.612 1.602.144.576.216 1.182.216 1.818zm-2.475 0c0-.714-.096-1.353-.288-1.917-.192-.57-.465-1.053-.819-1.449-.354-.396-.786-.699-1.296-.909-.504-.21-1.074-.315-1.71-.315-.636 0-1.209.105-1.719.315-.504.21-.936.513-1.296.909-.354.396-.627.879-.819 1.449-.192.564-.288 1.203-.288 1.917s.096 1.356.288 1.926c.192.564.465 1.044.819 1.44.36.39.792.69 1.296.9.51.21 1.083.315 1.719.315.636 0 1.206-.105 1.71-.315.51-.21.942-.51 1.296-.9.354-.396.627-.876.819-1.44.192-.57.288-1.212.288-1.926zm9.8391 4.554c.468 0 .885-.078 1.251-.234.372-.156.684-.375.936-.657.252-.282.444-.624.576-1.026.138-.402.207-.852.207-1.35V8.986h2.421v7.794c0 .774-.126 1.491-.378 2.151-.246.654-.603 1.221-1.071 1.701-.462.474-1.026.846-1.692 1.116-.666.264-1.416.396-2.25.396-.84 0-1.593-.132-2.259-.396-.666-.27-1.233-.642-1.701-1.116-.462-.48-.819-1.047-1.071-1.701-.246-.66-.369-1.377-.369-2.151V8.986h2.421v7.785c0 .498.066.948.198 1.35.138.402.333.747.585 1.035.258.282.57.501.936.657.372.156.792.234 1.26.234zm19.6774-4.554c0 .954-.159 1.83-.477 2.628-.318.798-.765 1.485-1.341 2.061-.576.576-1.269 1.023-2.079 1.341-.81.318-1.71.477-2.7.477h-4.959V8.986h4.959c.99 0 1.89.162 2.7.486.81.318 1.503.765 2.079 1.341.576.57 1.023 1.254 1.341 2.052.318.798.477 1.674.477 2.628zm-2.484 0c0-.714-.096-1.353-.288-1.917-.186-.57-.459-1.05-.819-1.44-.354-.396-.786-.699-1.296-.909-.504-.21-1.074-.315-1.71-.315h-2.529v9.162h2.529c.636 0 1.206-.105 1.71-.315.51-.21.942-.51 1.296-.9.36-.396.633-.876.819-1.44.192-.57.288-1.212.288-1.926zm9.4906 4.617c.45 0 .828-.054 1.134-.162.306-.108.549-.252.729-.432.186-.18.318-.39.396-.63.084-.24.126-.495.126-.765 0-.282-.045-.534-.135-.756-.09-.228-.231-.42-.423-.576-.192-.162-.441-.285-.747-.369-.3-.084-.663-.126-1.089-.126h-2.439v3.816h2.448zm-2.448-9.252v3.762h1.926c.828 0 1.452-.15 1.872-.45.426-.3.639-.777.639-1.431 0-.678-.192-1.161-.576-1.449-.384-.288-.984-.432-1.8-.432h-2.061zm2.061-1.872c.852 0 1.581.081 2.187.243.606.162 1.101.393 1.485.693.39.3.675.663.855 1.089.18.426.27.906.27 1.44 0 .306-.045.6-.135.882-.09.276-.231.537-.423.783-.186.24-.426.459-.72.657-.288.198-.633.366-1.035.504 1.788.402 2.682 1.368 2.682 2.898 0 .552-.105 1.062-.315 1.53-.21.468-.516.873-.918 1.215-.402.336-.897.6-1.485.792-.588.192-1.26.288-2.016.288h-4.9142V8.986h4.4822zm12.603 11.061c.468 0 .885-.078 1.251-.234.372-.156.684-.375.936-.657.252-.282.444-.624.576-1.026.138-.402.207-.852.207-1.35V8.986h2.421v7.794c0 .774-.126 1.491-.378 2.151-.246.654-.603 1.221-1.071 1.701-.462.474-1.026.846-1.692 1.116-.666.264-1.416.396-2.25.396-.84 0-1.593-.132-2.259-.396-.666-.27-1.233-.642-1.701-1.116-.462-.48-.819-1.047-1.071-1.701-.246-.66-.369-1.377-.369-2.151V8.986h2.421v7.785c0 .498.066.948.198 1.35.138.402.333.747.585 1.035.258.282.57.501.936.657.372.156.792.234 1.26.234zm19.678-4.554c0 .954-.159 1.83-.477 2.628-.318.798-.765 1.485-1.341 2.061-.576.576-1.269 1.023-2.079 1.341-.81.318-1.71.477-2.7.477h-4.959V8.986H130c.99 0 1.89.162 2.7.486.81.318 1.503.765 2.079 1.341.576.57 1.023 1.254 1.341 2.052.318.798.477 1.674.477 2.628zm-2.484 0c0-.714-.096-1.353-.288-1.917-.186-.57-.459-1.05-.819-1.44-.354-.396-.786-.699-1.296-.909-.504-.21-1.074-.315-1.71-.315h-2.529v9.162H130c.636 0 1.206-.105 1.71-.315.51-.21.942-.51 1.296-.9.36-.396.633-.876.819-1.44.192-.57.288-1.212.288-1.926zm15.349-.018v5.265c-.66.486-1.365.843-2.115 1.071-.744.222-1.542.333-2.394.333-1.062 0-2.025-.165-2.889-.495-.858-.33-1.593-.789-2.205-1.377-.606-.588-1.074-1.29-1.404-2.106-.33-.816-.495-1.707-.495-2.673 0-.978.159-1.875.477-2.691.318-.816.768-1.518 1.35-2.106.588-.588 1.299-1.044 2.133-1.368.834-.324 1.77-.486 2.808-.486.528 0 1.02.042 1.476.126.462.084.888.201 1.278.351.396.144.756.321 1.08.531.324.21.621.441.891.693l-.693 1.098c-.108.174-.249.282-.423.324-.174.036-.363-.009-.567-.135l-.594-.342c-.198-.114-.42-.213-.666-.297-.24-.084-.513-.153-.819-.207-.3-.054-.648-.081-1.044-.081-.642 0-1.224.108-1.746.324-.516.216-.957.525-1.323.927s-.648.885-.846 1.449c-.198.564-.297 1.194-.297 1.89 0 .744.105 1.41.315 1.998.216.582.516 1.077.9 1.485.39.402.858.711 1.404.927.546.21 1.155.315 1.827.315.48 0 .909-.051 1.287-.153.378-.102.747-.24 1.107-.414v-2.358h-1.638c-.156 0-.279-.042-.369-.126-.084-.09-.126-.198-.126-.324v-1.368h4.32zm4.763-4.563v3.609h4.554v1.863h-4.554v3.681h5.778V22h-8.208V8.986h8.208v1.926h-5.778zm17.013.063h-3.924V22h-2.421V10.975h-3.924V8.986h10.269v1.989zM21.605 13.05c0-.435.145-.87.145-1.45 0-3.18998-2.61-5.79998-5.8-5.79998-2.32 0-4.205 1.305-5.22 3.19-.29-.145-.86999-.29-1.30499-.29-2.03 0-3.625 1.59498-3.625 3.62498 0 .29 0 .58.145.725-2.61.435-4.495 2.465-4.495 5.075 0 2.755 2.32 5.075 5.075 5.075H21.025c2.755 0 5.075-2.32 5.075-5.075 0-2.61-1.885-4.785-4.495-5.075z" fill="#fff"/></svg>